<mxfile host="app.diagrams.net" agent="Mozilla/5.0 (Windows NT 10.0; Win64; x64) AppleWebKit/537.36 (KHTML, like Gecko) Chrome/129.0.0.0 Safari/537.36" version="24.7.13">
  <diagram name="페이지-1" id="_bnPBjuCgKKNUlrmMtEw">
    <mxGraphModel dx="1114" dy="558" grid="1" gridSize="10" guides="1" tooltips="1" connect="1" arrows="1" fold="1" page="1" pageScale="1" pageWidth="827" pageHeight="1169" math="0" shadow="0">
      <root>
        <mxCell id="0" />
        <mxCell id="1" parent="0" />
        <mxCell id="u-QWtJUSuIXk8fvenDZl-1" value="Alarm&amp;nbsp;" style="swimlane;fontStyle=0;childLayout=stackLayout;horizontal=1;startSize=30;horizontalStack=0;resizeParent=1;resizeParentMax=0;resizeLast=0;collapsible=1;marginBottom=0;whiteSpace=wrap;html=1;" vertex="1" parent="1">
          <mxGeometry x="270" y="140" width="140" height="60" as="geometry" />
        </mxCell>
        <mxCell id="u-QWtJUSuIXk8fvenDZl-2" value="+ start()&lt;span style=&quot;background-color: initial;&quot;&gt;&amp;nbsp;:void&lt;/span&gt;" style="text;strokeColor=none;fillColor=none;align=left;verticalAlign=middle;spacingLeft=4;spacingRight=4;overflow=hidden;points=[[0,0.5],[1,0.5]];portConstraint=eastwest;rotatable=0;whiteSpace=wrap;html=1;" vertex="1" parent="u-QWtJUSuIXk8fvenDZl-1">
          <mxGeometry y="30" width="140" height="30" as="geometry" />
        </mxCell>
        <mxCell id="u-QWtJUSuIXk8fvenDZl-5" value="Lamp" style="swimlane;fontStyle=0;childLayout=stackLayout;horizontal=1;startSize=30;horizontalStack=0;resizeParent=1;resizeParentMax=0;resizeLast=0;collapsible=1;marginBottom=0;whiteSpace=wrap;html=1;" vertex="1" parent="1">
          <mxGeometry x="520" y="140" width="140" height="60" as="geometry" />
        </mxCell>
        <mxCell id="u-QWtJUSuIXk8fvenDZl-6" value="+ turnOn() : void" style="text;strokeColor=none;fillColor=none;align=left;verticalAlign=middle;spacingLeft=4;spacingRight=4;overflow=hidden;points=[[0,0.5],[1,0.5]];portConstraint=eastwest;rotatable=0;whiteSpace=wrap;html=1;" vertex="1" parent="u-QWtJUSuIXk8fvenDZl-5">
          <mxGeometry y="30" width="140" height="30" as="geometry" />
        </mxCell>
        <mxCell id="u-QWtJUSuIXk8fvenDZl-9" value="Button" style="swimlane;fontStyle=0;childLayout=stackLayout;horizontal=1;startSize=30;horizontalStack=0;resizeParent=1;resizeParentMax=0;resizeLast=0;collapsible=1;marginBottom=0;whiteSpace=wrap;html=1;" vertex="1" parent="1">
          <mxGeometry x="400" y="330" width="140" height="120" as="geometry" />
        </mxCell>
        <mxCell id="u-QWtJUSuIXk8fvenDZl-10" value="Item 1" style="text;strokeColor=none;fillColor=none;align=left;verticalAlign=middle;spacingLeft=4;spacingRight=4;overflow=hidden;points=[[0,0.5],[1,0.5]];portConstraint=eastwest;rotatable=0;whiteSpace=wrap;html=1;" vertex="1" parent="u-QWtJUSuIXk8fvenDZl-9">
          <mxGeometry y="30" width="140" height="30" as="geometry" />
        </mxCell>
        <mxCell id="u-QWtJUSuIXk8fvenDZl-11" value="Item 2" style="text;strokeColor=none;fillColor=none;align=left;verticalAlign=middle;spacingLeft=4;spacingRight=4;overflow=hidden;points=[[0,0.5],[1,0.5]];portConstraint=eastwest;rotatable=0;whiteSpace=wrap;html=1;" vertex="1" parent="u-QWtJUSuIXk8fvenDZl-9">
          <mxGeometry y="60" width="140" height="30" as="geometry" />
        </mxCell>
        <mxCell id="u-QWtJUSuIXk8fvenDZl-12" value="Item 3" style="text;strokeColor=none;fillColor=none;align=left;verticalAlign=middle;spacingLeft=4;spacingRight=4;overflow=hidden;points=[[0,0.5],[1,0.5]];portConstraint=eastwest;rotatable=0;whiteSpace=wrap;html=1;" vertex="1" parent="u-QWtJUSuIXk8fvenDZl-9">
          <mxGeometry y="90" width="140" height="30" as="geometry" />
        </mxCell>
        <mxCell id="u-QWtJUSuIXk8fvenDZl-13" value="Use" style="endArrow=open;endSize=12;dashed=1;html=1;rounded=0;entryX=0.464;entryY=1;entryDx=0;entryDy=0;entryPerimeter=0;exitX=0.443;exitY=0.008;exitDx=0;exitDy=0;exitPerimeter=0;" edge="1" parent="1" source="u-QWtJUSuIXk8fvenDZl-9" target="u-QWtJUSuIXk8fvenDZl-2">
          <mxGeometry width="160" relative="1" as="geometry">
            <mxPoint x="330" y="290" as="sourcePoint" />
            <mxPoint x="349.94000000000005" y="260" as="targetPoint" />
          </mxGeometry>
        </mxCell>
        <mxCell id="u-QWtJUSuIXk8fvenDZl-14" value="Use" style="endArrow=open;endSize=12;dashed=1;html=1;rounded=0;entryX=0.557;entryY=0.9;entryDx=0;entryDy=0;entryPerimeter=0;exitX=0.436;exitY=0.008;exitDx=0;exitDy=0;exitPerimeter=0;" edge="1" parent="1" source="u-QWtJUSuIXk8fvenDZl-9" target="u-QWtJUSuIXk8fvenDZl-6">
          <mxGeometry width="160" relative="1" as="geometry">
            <mxPoint x="472" y="341" as="sourcePoint" />
            <mxPoint x="595.04" y="260" as="targetPoint" />
          </mxGeometry>
        </mxCell>
      </root>
    </mxGraphModel>
  </diagram>
</mxfile>
